<svg width="36" height="36" viewBox="0 0 36 36" fill="none" xmlns="http://www.w3.org/2000/svg">
<path d="M0 6C0 2.68629 2.68629 0 6 0H36V30C36 33.3137 33.3137 36 30 36H0V6Z" fill="white"/>
<path d="M27.824 26.88L27.5484 26.5899L27.5412 26.5972L27.824 26.88ZM28.52 25.176V24.776H28.1833L28.1259 25.1078L28.52 25.176ZM29.264 25.344H29.664V25.1051L29.4536 24.9918L29.264 25.344ZM29.072 28.872V29.272H29.4189L29.468 28.9286L29.072 28.872ZM18.368 28.872L18.0069 29.044L18.1154 29.272H18.368V28.872ZM18.128 27.504L17.7864 27.296L17.728 27.3918V27.504H18.128ZM25.64 15.168L25.9816 15.376L26.3519 14.768H25.64V15.168ZM19.76 15.648L19.4772 15.3652L19.4772 15.3652L19.76 15.648ZM19.064 17.352V17.752H19.3944L19.4568 17.4275L19.064 17.352ZM18.32 17.184H17.92V17.4519L18.1677 17.5539L18.32 17.184ZM18.536 13.632V13.232H18.1899L18.1401 13.5745L18.536 13.632ZM28.976 13.632L29.3519 13.4953L29.2562 13.232H28.976V13.632ZM29.168 15L29.5096 15.208L29.568 15.1122V15H29.168ZM21.656 27.336L21.3144 27.128L20.9441 27.736H21.656V27.336ZM26.408 27.736C27.1027 27.736 27.698 27.5717 28.1068 27.1628L27.5412 26.5972C27.342 26.7963 26.9933 26.936 26.408 26.936V27.736ZM28.0995 27.17C28.5173 26.773 28.7669 26.0949 28.9141 25.2442L28.1259 25.1078C27.9851 25.9211 27.7707 26.379 27.5485 26.59L28.0995 27.17ZM28.52 25.576C28.7562 25.576 28.9361 25.6217 29.0744 25.6962L29.4536 24.9918C29.1759 24.8423 28.8598 24.776 28.52 24.776V25.576ZM28.864 25.344C28.864 26.791 28.8002 27.9459 28.676 28.8154L29.468 28.9286C29.5998 28.0061 29.664 26.809 29.664 25.344H28.864ZM29.072 28.472H18.368V29.272H29.072V28.472ZM18.7291 28.7C18.6049 28.4391 18.528 28.0499 18.528 27.504H17.728C17.728 28.1101 17.8111 28.6329 18.0069 29.044L18.7291 28.7ZM18.4696 27.712L25.9816 15.376L25.2984 14.96L17.7864 27.296L18.4696 27.712ZM25.64 14.768H21.2V15.568H25.64V14.768ZM21.2 14.768C20.4983 14.768 19.8986 14.9437 19.4772 15.3652L20.0428 15.9308C20.2614 15.7123 20.6217 15.568 21.2 15.568V14.768ZM19.4772 15.3652C19.0837 15.7586 18.8341 16.4295 18.6712 17.2765L19.4568 17.4275C19.6139 16.6105 19.8283 16.1453 20.0428 15.9308L19.4772 15.3652ZM19.064 16.952C18.9058 16.952 18.7104 16.9122 18.4723 16.8141L18.1677 17.5539C18.4736 17.6798 18.7742 17.752 19.064 17.752V16.952ZM18.72 17.184C18.72 15.8207 18.7914 14.6569 18.9319 13.6895L18.1401 13.5745C17.9926 14.5911 17.92 15.7953 17.92 17.184H18.72ZM18.536 14.032H28.976V13.232H18.536V14.032ZM28.6001 13.7687C28.7189 14.0953 28.768 14.3509 28.768 14.544H29.568C29.568 14.2251 29.4891 13.8727 29.3519 13.4953L28.6001 13.7687ZM28.768 14.544C28.768 14.5445 28.768 14.545 28.768 14.5455C28.768 14.546 28.768 14.5465 28.768 14.547C28.768 14.5475 28.768 14.548 28.768 14.5485C28.768 14.549 28.768 14.5495 28.768 14.55C28.768 14.5505 28.768 14.551 28.768 14.5515C28.768 14.552 28.768 14.5525 28.768 14.553C28.768 14.5535 28.768 14.5539 28.768 14.5544C28.768 14.5549 28.768 14.5554 28.768 14.5559C28.768 14.5564 28.768 14.5569 28.768 14.5574C28.768 14.5579 28.768 14.5584 28.768 14.5589C28.768 14.5594 28.768 14.5599 28.768 14.5604C28.768 14.5608 28.768 14.5613 28.768 14.5618C28.768 14.5623 28.768 14.5628 28.768 14.5633C28.768 14.5638 28.768 14.5643 28.768 14.5648C28.768 14.5653 28.768 14.5657 28.768 14.5662C28.768 14.5667 28.768 14.5672 28.768 14.5677C28.768 14.5682 28.768 14.5687 28.768 14.5692C28.768 14.5696 28.768 14.5701 28.768 14.5706C28.768 14.5711 28.768 14.5716 28.768 14.5721C28.768 14.5726 28.768 14.573 28.768 14.5735C28.768 14.574 28.768 14.5745 28.768 14.575C28.768 14.5755 28.768 14.5759 28.768 14.5764C28.768 14.5769 28.768 14.5774 28.768 14.5779C28.768 14.5784 28.768 14.5788 28.768 14.5793C28.768 14.5798 28.768 14.5803 28.768 14.5808C28.768 14.5812 28.768 14.5817 28.768 14.5822C28.768 14.5827 28.768 14.5832 28.768 14.5836C28.768 14.5841 28.768 14.5846 28.768 14.5851C28.768 14.5855 28.768 14.586 28.768 14.5865C28.768 14.587 28.768 14.5875 28.768 14.5879C28.768 14.5884 28.768 14.5889 28.768 14.5894C28.768 14.5898 28.768 14.5903 28.768 14.5908C28.768 14.5913 28.768 14.5917 28.768 14.5922C28.768 14.5927 28.768 14.5931 28.768 14.5936C28.768 14.5941 28.768 14.5946 28.768 14.595C28.768 14.5955 28.768 14.596 28.768 14.5965C28.768 14.5969 28.768 14.5974 28.768 14.5979C28.768 14.5983 28.768 14.5988 28.768 14.5993C28.768 14.5998 28.768 14.6002 28.768 14.6007C28.768 14.6012 28.768 14.6016 28.768 14.6021C28.768 14.6026 28.768 14.603 28.768 14.6035C28.768 14.604 28.768 14.6044 28.768 14.6049C28.768 14.6054 28.768 14.6058 28.768 14.6063C28.768 14.6068 28.768 14.6072 28.768 14.6077C28.768 14.6082 28.768 14.6086 28.768 14.6091C28.768 14.6096 28.768 14.61 28.768 14.6105C28.768 14.6109 28.768 14.6114 28.768 14.6119C28.768 14.6123 28.768 14.6128 28.768 14.6133C28.768 14.6137 28.768 14.6142 28.768 14.6146C28.768 14.6151 28.768 14.6156 28.768 14.616C28.768 14.6165 28.768 14.6169 28.768 14.6174C28.768 14.6179 28.768 14.6183 28.768 14.6188C28.768 14.6192 28.768 14.6197 28.768 14.6202C28.768 14.6206 28.768 14.6211 28.768 14.6215C28.768 14.622 28.768 14.6224 28.768 14.6229C28.768 14.6234 28.768 14.6238 28.768 14.6243C28.768 14.6247 28.768 14.6252 28.768 14.6256C28.768 14.6261 28.768 14.6265 28.768 14.627C28.768 14.6274 28.768 14.6279 28.768 14.6284C28.768 14.6288 28.768 14.6293 28.768 14.6297C28.768 14.6302 28.768 14.6306 28.768 14.6311C28.768 14.6315 28.768 14.632 28.768 14.6324C28.768 14.6329 28.768 14.6333 28.768 14.6338C28.768 14.6342 28.768 14.6347 28.768 14.6351C28.768 14.6356 28.768 14.636 28.768 14.6365C28.768 14.6369 28.768 14.6374 28.768 14.6378C28.768 14.6383 28.768 14.6387 28.768 14.6392C28.768 14.6396 28.768 14.64 28.768 14.6405C28.768 14.6409 28.768 14.6414 28.768 14.6418C28.768 14.6423 28.768 14.6427 28.768 14.6432C28.768 14.6436 28.768 14.6441 28.768 14.6445C28.768 14.6449 28.768 14.6454 28.768 14.6458C28.768 14.6463 28.768 14.6467 28.768 14.6472C28.768 14.6476 28.768 14.648 28.768 14.6485C28.768 14.6489 28.768 14.6494 28.768 14.6498C28.768 14.6502 28.768 14.6507 28.768 14.6511C28.768 14.6516 28.768 14.652 28.768 14.6524C28.768 14.6529 28.768 14.6533 28.768 14.6538C28.768 14.6542 28.768 14.6546 28.768 14.6551C28.768 14.6555 28.768 14.6559 28.768 14.6564C28.768 14.6568 28.768 14.6573 28.768 14.6577C28.768 14.6581 28.768 14.6586 28.768 14.659C28.768 14.6594 28.768 14.6599 28.768 14.6603C28.768 14.6607 28.768 14.6612 28.768 14.6616C28.768 14.662 28.768 14.6625 28.768 14.6629C28.768 14.6633 28.768 14.6638 28.768 14.6642C28.768 14.6646 28.768 14.6651 28.768 14.6655C28.768 14.6659 28.768 14.6664 28.768 14.6668C28.768 14.6672 28.768 14.6676 28.768 14.6681C28.768 14.6685 28.768 14.6689 28.768 14.6694C28.768 14.6698 28.768 14.6702 28.768 14.6706C28.768 14.6711 28.768 14.6715 28.768 14.6719C28.768 14.6724 28.768 14.6728 28.768 14.6732C28.768 14.6736 28.768 14.6741 28.768 14.6745C28.768 14.6749 28.768 14.6753 28.768 14.6758C28.768 14.6762 28.768 14.6766 28.768 14.677C28.768 14.6775 28.768 14.6779 28.768 14.6783C28.768 14.6787 28.768 14.6791 28.768 14.6796C28.768 14.68 28.768 14.6804 28.768 14.6808C28.768 14.6813 28.768 14.6817 28.768 14.6821C28.768 14.6825 28.768 14.6829 28.768 14.6834C28.768 14.6838 28.768 14.6842 28.768 14.6846C28.768 14.685 28.768 14.6855 28.768 14.6859C28.768 14.6863 28.768 14.6867 28.768 14.6871C28.768 14.6875 28.768 14.688 28.768 14.6884C28.768 14.6888 28.768 14.6892 28.768 14.6896C28.768 14.69 28.768 14.6905 28.768 14.6909C28.768 14.6913 28.768 14.6917 28.768 14.6921C28.768 14.6925 28.768 14.6929 28.768 14.6934C28.768 14.6938 28.768 14.6942 28.768 14.6946C28.768 14.695 28.768 14.6954 28.768 14.6958C28.768 14.6962 28.768 14.6967 28.768 14.6971C28.768 14.6975 28.768 14.6979 28.768 14.6983C28.768 14.6987 28.768 14.6991 28.768 14.6995C28.768 14.6999 28.768 14.7004 28.768 14.7008C28.768 14.7012 28.768 14.7016 28.768 14.702C28.768 14.7024 28.768 14.7028 28.768 14.7032C28.768 14.7036 28.768 14.704 28.768 14.7044C28.768 14.7048 28.768 14.7052 28.768 14.7056C28.768 14.7061 28.768 14.7065 28.768 14.7069C28.768 14.7073 28.768 14.7077 28.768 14.7081C28.768 14.7085 28.768 14.7089 28.768 14.7093C28.768 14.7097 28.768 14.7101 28.768 14.7105C28.768 14.7109 28.768 14.7113 28.768 14.7117C28.768 14.7121 28.768 14.7125 28.768 14.7129C28.768 14.7133 28.768 14.7137 28.768 14.7141C28.768 14.7145 28.768 14.7149 28.768 14.7153C28.768 14.7157 28.768 14.7161 28.768 14.7165C28.768 14.7169 28.768 14.7173 28.768 14.7177C28.768 14.7181 28.768 14.7185 28.768 14.7189C28.768 14.7193 28.768 14.7197 28.768 14.7201C28.768 14.7205 28.768 14.7209 28.768 14.7213C28.768 14.7217 28.768 14.7221 28.768 14.7224C28.768 14.7228 28.768 14.7232 28.768 14.7236C28.768 14.724 28.768 14.7244 28.768 14.7248C28.768 14.7252 28.768 14.7256 28.768 14.726C28.768 14.7264 28.768 14.7268 28.768 14.7272C28.768 14.7276 28.768 14.7279 28.768 14.7283C28.768 14.7287 28.768 14.7291 28.768 14.7295C28.768 14.7299 28.768 14.7303 28.768 14.7307C28.768 14.7311 28.768 14.7314 28.768 14.7318C28.768 14.7322 28.768 14.7326 28.768 14.733C28.768 14.7334 28.768 14.7338 28.768 14.7342C28.768 14.7345 28.768 14.7349 28.768 14.7353C28.768 14.7357 28.768 14.7361 28.768 14.7365C28.768 14.7369 28.768 14.7372 28.768 14.7376C28.768 14.738 28.768 14.7384 28.768 14.7388C28.768 14.7392 28.768 14.7395 28.768 14.7399C28.768 14.7403 28.768 14.7407 28.768 14.7411C28.768 14.7415 28.768 14.7418 28.768 14.7422C28.768 14.7426 28.768 14.743 28.768 14.7434C28.768 14.7437 28.768 14.7441 28.768 14.7445C28.768 14.7449 28.768 14.7453 28.768 14.7456C28.768 14.746 28.768 14.7464 28.768 14.7468C28.768 14.7472 28.768 14.7475 28.768 14.7479C28.768 14.7483 28.768 14.7487 28.768 14.749C28.768 14.7494 28.768 14.7498 28.768 14.7502C28.768 14.7505 28.768 14.7509 28.768 14.7513C28.768 14.7517 28.768 14.752 28.768 14.7524C28.768 14.7528 28.768 14.7532 28.768 14.7535C28.768 14.7539 28.768 14.7543 28.768 14.7546C28.768 14.755 28.768 14.7554 28.768 14.7558C28.768 14.7561 28.768 14.7565 28.768 14.7569C28.768 14.7572 28.768 14.7576 28.768 14.758C28.768 14.7584 28.768 14.7587 28.768 14.7591C28.768 14.7595 28.768 14.7598 28.768 14.7602C28.768 14.7606 28.768 14.7609 28.768 14.7613C28.768 14.7617 28.768 14.762 28.768 14.7624C28.768 14.7628 28.768 14.7631 28.768 14.7635C28.768 14.7639 28.768 14.7642 28.768 14.7646C28.768 14.765 28.768 14.7653 28.768 14.7657C28.768 14.7661 28.768 14.7664 28.768 14.7668C28.768 14.7672 28.768 14.7675 28.768 14.7679C28.768 14.7682 28.768 14.7686 28.768 14.769C28.768 14.7693 28.768 14.7697 28.768 14.77C28.768 14.7704 28.768 14.7708 28.768 14.7711C28.768 14.7715 28.768 14.7719 28.768 14.7722C28.768 14.7726 28.768 14.7729 28.768 14.7733C28.768 14.7736 28.768 14.774 28.768 14.7744C28.768 14.7747 28.768 14.7751 28.768 14.7754C28.768 14.7758 28.768 14.7762 28.768 14.7765C28.768 14.7769 28.768 14.7772 28.768 14.7776C28.768 14.7779 28.768 14.7783 28.768 14.7786C28.768 14.779 28.768 14.7794 28.768 14.7797C28.768 14.7801 28.768 14.7804 28.768 14.7808C28.768 14.7811 28.768 14.7815 28.768 14.7818C28.768 14.7822 28.768 14.7825 28.768 14.7829C28.768 14.7832 28.768 14.7836 28.768 14.7839C28.768 14.7843 28.768 14.7846 28.768 14.785C28.768 14.7853 28.768 14.7857 28.768 14.786C28.768 14.7864 28.768 14.7867 28.768 14.7871C28.768 14.7874 28.768 14.7878 28.768 14.7881C28.768 14.7885 28.768 14.7888 28.768 14.7892C28.768 14.7895 28.768 14.7899 28.768 14.7902C28.768 14.7906 28.768 14.7909 28.768 14.7912C28.768 14.7916 28.768 14.7919 28.768 14.7923C28.768 14.7926 28.768 14.793 28.768 14.7933C28.768 14.7937 28.768 14.794 28.768 14.7943C28.768 14.7947 28.768 14.795 28.768 14.7954C28.768 14.7957 28.768 14.7961 28.768 14.7964C28.768 14.7967 28.768 14.7971 28.768 14.7974C28.768 14.7978 28.768 14.7981 28.768 14.7984C28.768 14.7988 28.768 14.7991 28.768 14.7995C28.768 14.7998 28.768 14.8001 28.768 14.8005C28.768 14.8008 28.768 14.8011 28.768 14.8015C28.768 14.8018 28.768 14.8022 28.768 14.8025C28.768 14.8028 28.768 14.8032 28.768 14.8035C28.768 14.8038 28.768 14.8042 28.768 14.8045C28.768 14.8048 28.768 14.8052 28.768 14.8055C28.768 14.8058 28.768 14.8062 28.768 14.8065C28.768 14.8068 28.768 14.8072 28.768 14.8075C28.768 14.8078 28.768 14.8082 28.768 14.8085C28.768 14.8088 28.768 14.8092 28.768 14.8095C28.768 14.8098 28.768 14.8102 28.768 14.8105C28.768 14.8108 28.768 14.8112 28.768 14.8115C28.768 14.8118 28.768 14.8121 28.768 14.8125C28.768 14.8128 28.768 14.8131 28.768 14.8135C28.768 14.8138 28.768 14.8141 28.768 14.8144C28.768 14.8148 28.768 14.8151 28.768 14.8154C28.768 14.8157 28.768 14.8161 28.768 14.8164C28.768 14.8167 28.768 14.817 28.768 14.8174C28.768 14.8177 28.768 14.818 28.768 14.8183C28.768 14.8187 28.768 14.819 28.768 14.8193C28.768 14.8196 28.768 14.82 28.768 14.8203C28.768 14.8206 28.768 14.8209 28.768 14.8212C28.768 14.8216 28.768 14.8219 28.768 14.8222C28.768 14.8225 28.768 14.8229 28.768 14.8232C28.768 14.8235 28.768 14.8238 28.768 14.8241C28.768 14.8244 28.768 14.8248 28.768 14.8251C28.768 14.8254 28.768 14.8257 28.768 14.826C28.768 14.8264 28.768 14.8267 28.768 14.827C28.768 14.8273 28.768 14.8276 28.768 14.8279C28.768 14.8283 28.768 14.8286 28.768 14.8289C28.768 14.8292 28.768 14.8295 28.768 14.8298C28.768 14.8301 28.768 14.8305 28.768 14.8308C28.768 14.8311 28.768 14.8314 28.768 14.8317C28.768 14.832 28.768 14.8323 28.768 14.8326C28.768 14.833 28.768 14.8333 28.768 14.8336C28.768 14.8339 28.768 14.8342 28.768 14.8345C28.768 14.8348 28.768 14.8351 28.768 14.8354C28.768 14.8358 28.768 14.8361 28.768 14.8364C28.768 14.8367 28.768 14.837 28.768 14.8373C28.768 14.8376 28.768 14.8379 28.768 14.8382C28.768 14.8385 28.768 14.8388 28.768 14.8391C28.768 14.8394 28.768 14.8398 28.768 14.8401C28.768 14.8404 28.768 14.8407 28.768 14.841C28.768 14.8413 28.768 14.8416 28.768 14.8419C28.768 14.8422 28.768 14.8425 28.768 14.8428C28.768 14.8431 28.768 14.8434 28.768 14.8437C28.768 14.844 28.768 14.8443 28.768 14.8446C28.768 14.8449 28.768 14.8452 28.768 14.8455C28.768 14.8458 28.768 14.8461 28.768 14.8464C28.768 14.8467 28.768 14.847 28.768 14.8473C28.768 14.8476 28.768 14.8479 28.768 14.8482C28.768 14.8485 28.768 14.8488 28.768 14.8491C28.768 14.8494 28.768 14.8497 28.768 14.85C28.768 14.8503 28.768 14.8506 28.768 14.8509C28.768 14.8512 28.768 14.8515 28.768 14.8518C28.768 14.8521 28.768 14.8524 28.768 14.8527C28.768 14.853 28.768 14.8532 28.768 14.8535C28.768 14.8538 28.768 14.8541 28.768 14.8544C28.768 14.8547 28.768 14.855 28.768 14.8553C28.768 14.8556 28.768 14.8559 28.768 14.8562C28.768 14.8565 28.768 14.8568 28.768 14.857C28.768 14.8573 28.768 14.8576 28.768 14.8579C28.768 14.8582 28.768 14.8585 28.768 14.8588C28.768 14.8591 28.768 14.8594 28.768 14.8597C28.768 14.8599 28.768 14.8602 28.768 14.8605C28.768 14.8608 28.768 14.8611 28.768 14.8614C28.768 14.8617 28.768 14.8619 28.768 14.8622C28.768 14.8625 28.768 14.8628 28.768 14.8631C28.768 14.8634 28.768 14.8637 28.768 14.8639C28.768 14.8642 28.768 14.8645 28.768 14.8648C28.768 14.8651 28.768 14.8654 28.768 14.8656C28.768 14.8659 28.768 14.8662 28.768 14.8665C28.768 14.8668 28.768 14.8671 28.768 14.8673C28.768 14.8676 28.768 14.8679 28.768 14.8682C28.768 14.8685 28.768 14.8687 28.768 14.869C28.768 14.8693 28.768 14.8696 28.768 14.8699C28.768 14.8701 28.768 14.8704 28.768 14.8707C28.768 14.871 28.768 14.8712 28.768 14.8715C28.768 14.8718 28.768 14.8721 28.768 14.8724C28.768 14.8726 28.768 14.8729 28.768 14.8732C28.768 14.8735 28.768 14.8737 28.768 14.874C28.768 14.8743 28.768 14.8746 28.768 14.8748C28.768 14.8751 28.768 14.8754 28.768 14.8756C28.768 14.8759 28.768 14.8762 28.768 14.8765C28.768 14.8767 28.768 14.877 28.768 14.8773C28.768 14.8776 28.768 14.8778 28.768 14.8781C28.768 14.8784 28.768 14.8786 28.768 14.8789C28.768 14.8792 28.768 14.8794 28.768 14.8797C28.768 14.88 28.768 14.8803 28.768 14.8805C28.768 14.8808 28.768 14.8811 28.768 14.8813C28.768 14.8816 28.768 14.8819 28.768 14.8821C28.768 14.8824 28.768 14.8827 28.768 14.8829C28.768 14.8832 28.768 14.8835 28.768 14.8837C28.768 14.884 28.768 14.8843 28.768 14.8845C28.768 14.8848 28.768 14.885 28.768 14.8853C28.768 14.8856 28.768 14.8858 28.768 14.8861C28.768 14.8864 28.768 14.8866 28.768 14.8869C28.768 14.8871 28.768 14.8874 28.768 14.8877C28.768 14.8879 28.768 14.8882 28.768 14.8884C28.768 14.8887 28.768 14.889 28.768 14.8892C28.768 14.8895 28.768 14.8897 28.768 14.89C28.768 14.8903 28.768 14.8905 28.768 14.8908C28.768 14.891 28.768 14.8913 28.768 14.8916C28.768 14.8918 28.768 14.8921 28.768 14.8923C28.768 14.8926 28.768 14.8928 28.768 14.8931C28.768 14.8933 28.768 14.8936 28.768 14.8939C28.768 14.8941 28.768 14.8944 28.768 14.8946C28.768 14.8949 28.768 14.8951 28.768 14.8954C28.768 14.8956 28.768 14.8959 28.768 14.8961C28.768 14.8964 28.768 14.8966 28.768 14.8969C28.768 14.8971 28.768 14.8974 28.768 14.8977C28.768 14.8979 28.768 14.8982 28.768 14.8984C28.768 14.8987 28.768 14.8989 28.768 14.8992C28.768 14.8994 28.768 14.8997 28.768 14.8999C28.768 14.9001 28.768 14.9004 28.768 14.9006C28.768 14.9009 28.768 14.9011 28.768 14.9014C28.768 14.9016 28.768 14.9019 28.768 14.9021C28.768 14.9024 28.768 14.9026 28.768 14.9029C28.768 14.9031 28.768 14.9034 28.768 14.9036C28.768 14.9038 28.768 14.9041 28.768 14.9043C28.768 14.9046 28.768 14.9048 28.768 14.9051C28.768 14.9053 28.768 14.9055 28.768 14.9058C28.768 14.906 28.768 14.9063 28.768 14.9065C28.768 14.9068 28.768 14.907 28.768 14.9072C28.768 14.9075 28.768 14.9077 28.768 14.908C28.768 14.9082 28.768 14.9084 28.768 14.9087C28.768 14.9089 28.768 14.9092 28.768 14.9094C28.768 14.9096 28.768 14.9099 28.768 14.9101C28.768 14.9103 28.768 14.9106 28.768 14.9108C28.768 14.911 28.768 14.9113 28.768 14.9115C28.768 14.9118 28.768 14.912 28.768 14.9122C28.768 14.9125 28.768 14.9127 28.768 14.9129C28.768 14.9132 28.768 14.9134 28.768 14.9136C28.768 14.9139 28.768 14.9141 28.768 14.9143C28.768 14.9146 28.768 14.9148 28.768 14.915C28.768 14.9153 28.768 14.9155 28.768 14.9157C28.768 14.916 28.768 14.9162 28.768 14.9164C28.768 14.9166 28.768 14.9169 28.768 14.9171C28.768 14.9173 28.768 14.9176 28.768 14.9178C28.768 14.918 28.768 14.9182 28.768 14.9185C28.768 14.9187 28.768 14.9189 28.768 14.9192C28.768 14.9194 28.768 14.9196 28.768 14.9198C28.768 14.9201 28.768 14.9203 28.768 14.9205C28.768 14.9207 28.768 14.921 28.768 14.9212C28.768 14.9214 28.768 14.9216 28.768 14.9219C28.768 14.9221 28.768 14.9223 28.768 14.9225C28.768 14.9228 28.768 14.923 28.768 14.9232C28.768 14.9234 28.768 14.9236 28.768 14.9239C28.768 14.9241 28.768 14.9243 28.768 14.9245C28.768 14.9248 28.768 14.925 28.768 14.9252C28.768 14.9254 28.768 14.9256 28.768 14.9259C28.768 14.9261 28.768 14.9263 28.768 14.9265C28.768 14.9267 28.768 14.9269 28.768 14.9272C28.768 14.9274 28.768 14.9276 28.768 14.9278C28.768 14.928 28.768 14.9282 28.768 14.9285C28.768 14.9287 28.768 14.9289 28.768 14.9291C28.768 14.9293 28.768 14.9295 28.768 14.9298C28.768 14.93 28.768 14.9302 28.768 14.9304C28.768 14.9306 28.768 14.9308 28.768 14.931C28.768 14.9312 28.768 14.9315 28.768 14.9317C28.768 14.9319 28.768 14.9321 28.768 14.9323C28.768 14.9325 28.768 14.9327 28.768 14.9329C28.768 14.9331 28.768 14.9334 28.768 14.9336C28.768 14.9338 28.768 14.934 28.768 14.9342C28.768 14.9344 28.768 14.9346 28.768 14.9348C28.768 14.935 28.768 14.9352 28.768 14.9354C28.768 14.9357 28.768 14.9359 28.768 14.9361C28.768 14.9363 28.768 14.9365 28.768 14.9367C28.768 14.9369 28.768 14.9371 28.768 14.9373C28.768 14.9375 28.768 14.9377 28.768 14.9379C28.768 14.9381 28.768 14.9383 28.768 14.9385C28.768 14.9387 28.768 14.9389 28.768 14.9391C28.768 14.9393 28.768 14.9395 28.768 14.9397C28.768 14.9399 28.768 14.9401 28.768 14.9403C28.768 14.9405 28.768 14.9407 28.768 14.9409C28.768 14.9411 28.768 14.9413 28.768 14.9415C28.768 14.9417 28.768 14.9419 28.768 14.9421C28.768 14.9423 28.768 14.9425 28.768 14.9427C28.768 14.9429 28.768 14.9431 28.768 14.9433C28.768 14.9435 28.768 14.9437 28.768 14.9439C28.768 14.9441 28.768 14.9443 28.768 14.9445C28.768 14.9447 28.768 14.9449 28.768 14.9451C28.768 14.9453 28.768 14.9455 28.768 14.9457C28.768 14.9459 28.768 14.9461 28.768 14.9462C28.768 14.9464 28.768 14.9466 28.768 14.9468C28.768 14.947 28.768 14.9472 28.768 14.9474C28.768 14.9476 28.768 14.9478 28.768 14.948C28.768 14.9482 28.768 14.9484 28.768 14.9485C28.768 14.9487 28.768 14.9489 28.768 14.9491C28.768 14.9493 28.768 14.9495 28.768 14.9497C28.768 14.9499 28.768 14.9501 28.768 14.9502C28.768 14.9504 28.768 14.9506 28.768 14.9508C28.768 14.951 28.768 14.9512 28.768 14.9514C28.768 14.9515 28.768 14.9517 28.768 14.9519C28.768 14.9521 28.768 14.9523 28.768 14.9525C28.768 14.9527 28.768 14.9528 28.768 14.953C28.768 14.9532 28.768 14.9534 28.768 14.9536C28.768 14.9538 28.768 14.9539 28.768 14.9541C28.768 14.9543 28.768 14.9545 28.768 14.9547C28.768 14.9548 28.768 14.955 28.768 14.9552C28.768 14.9554 28.768 14.9556 28.768 14.9557C28.768 14.9559 28.768 14.9561 28.768 14.9563C28.768 14.9565 28.768 14.9566 28.768 14.9568C28.768 14.957 28.768 14.9572 28.768 14.9573C28.768 14.9575 28.768 14.9577 28.768 14.9579C28.768 14.9581 28.768 14.9582 28.768 14.9584C28.768 14.9586 28.768 14.9588 28.768 14.9589C28.768 14.9591 28.768 14.9593 28.768 14.9595C28.768 14.9596 28.768 14.9598 28.768 14.96C28.768 14.9601 28.768 14.9603 28.768 14.9605C28.768 14.9607 28.768 14.9608 28.768 14.961C28.768 14.9612 28.768 14.9613 28.768 14.9615C28.768 14.9617 28.768 14.9619 28.768 14.962C28.768 14.9622 28.768 14.9624 28.768 14.9625C28.768 14.9627 28.768 14.9629 28.768 14.963C28.768 14.9632 28.768 14.9634 28.768 14.9635C28.768 14.9637 28.768 14.9639 28.768 14.9641C28.768 14.9642 28.768 14.9644 28.768 14.9646C28.768 14.9647 28.768 14.9649 28.768 14.965C28.768 14.9652 28.768 14.9654 28.768 14.9655C28.768 14.9657 28.768 14.9659 28.768 14.966C28.768 14.9662 28.768 14.9664 28.768 14.9665C28.768 14.9667 28.768 14.9668 28.768 14.967C28.768 14.9672 28.768 14.9673 28.768 14.9675C28.768 14.9677 28.768 14.9678 28.768 14.968C28.768 14.9681 28.768 14.9683 28.768 14.9685C28.768 14.9686 28.768 14.9688 28.768 14.9689C28.768 14.9691 28.768 14.9693 28.768 14.9694C28.768 14.9696 28.768 14.9697 28.768 14.9699C28.768 14.97 28.768 14.9702 28.768 14.9704C28.768 14.9705 28.768 14.9707 28.768 14.9708C28.768 14.971 28.768 14.9711 28.768 14.9713C28.768 14.9714 28.768 14.9716 28.768 14.9718C28.768 14.9719 28.768 14.9721 28.768 14.9722C28.768 14.9724 28.768 14.9725 28.768 14.9727C28.768 14.9728 28.768 14.973 28.768 14.9731C28.768 14.9733 28.768 14.9734 28.768 14.9736C28.768 14.9737 28.768 14.9739 28.768 14.974C28.768 14.9742 28.768 14.9743 28.768 14.9745C28.768 14.9746 28.768 14.9748 28.768 14.9749C28.768 14.9751 28.768 14.9752 28.768 14.9754C28.768 14.9755 28.768 14.9757 28.768 14.9758C28.768 14.976 28.768 14.9761 28.768 14.9763C28.768 14.9764 28.768 14.9765 28.768 14.9767C28.768 14.9768 28.768 14.977 28.768 14.9771C28.768 14.9773 28.768 14.9774 28.768 14.9776C28.768 14.9777 28.768 14.9778 28.768 14.978C28.768 14.9781 28.768 14.9783 28.768 14.9784C28.768 14.9786 28.768 14.9787 28.768 14.9788C28.768 14.979 28.768 14.9791 28.768 14.9793C28.768 14.9794 28.768 14.9795 28.768 14.9797C28.768 14.9798 28.768 14.98 28.768 14.9801C28.768 14.9802 28.768 14.9804 28.768 14.9805C28.768 14.9807 28.768 14.9808 28.768 14.9809C28.768 14.9811 28.768 14.9812 28.768 14.9813C28.768 14.9815 28.768 14.9816 28.768 14.9818C28.768 14.9819 28.768 14.982 28.768 14.9822C28.768 14.9823 28.768 14.9824 28.768 14.9826C28.768 14.9827 28.768 14.9828 28.768 14.983C28.768 14.9831 28.768 14.9832 28.768 14.9834C28.768 14.9835 28.768 14.9836 28.768 14.9838C28.768 14.9839 28.768 14.984 28.768 14.9842C28.768 14.9843 28.768 14.9844 28.768 14.9845C28.768 14.9847 28.768 14.9848 28.768 14.9849C28.768 14.9851 28.768 14.9852 28.768 14.9853C28.768 14.9854 28.768 14.9856 28.768 14.9857C28.768 14.9858 28.768 14.986 28.768 14.9861C28.768 14.9862 28.768 14.9863 28.768 14.9865C28.768 14.9866 28.768 14.9867 28.768 14.9868C28.768 14.987 28.768 14.9871 28.768 14.9872C28.768 14.9873 28.768 14.9875 28.768 14.9876C28.768 14.9877 28.768 14.9878 28.768 14.988C28.768 14.9881 28.768 14.9882 28.768 14.9883C28.768 14.9885 28.768 14.9886 28.768 14.9887C28.768 14.9888 28.768 14.9889 28.768 14.9891C28.768 14.9892 28.768 14.9893 28.768 14.9894C28.768 14.9895 28.768 14.9897 28.768 14.9898C28.768 14.9899 28.768 14.99 28.768 14.9901C28.768 14.9903 28.768 14.9904 28.768 14.9905C28.768 14.9906 28.768 14.9907 28.768 14.9908C28.768 14.991 28.768 14.9911 28.768 14.9912C28.768 14.9913 28.768 14.9914 28.768 14.9915C28.768 14.9917 28.768 14.9918 28.768 14.9919C28.768 14.992 28.768 14.9921 28.768 14.9922C28.768 14.9923 28.768 14.9925 28.768 14.9926C28.768 14.9927 28.768 14.9928 28.768 14.9929C28.768 14.993 28.768 14.9931 28.768 14.9932C28.768 14.9933 28.768 14.9935 28.768 14.9936C28.768 14.9937 28.768 14.9938 28.768 14.9939C28.768 14.994 28.768 14.9941 28.768 14.9942C28.768 14.9943 28.768 14.9944 28.768 14.9946C28.768 14.9947 28.768 14.9948 28.768 14.9949C28.768 14.995 28.768 14.9951 28.768 14.9952C28.768 14.9953 28.768 14.9954 28.768 14.9955C28.768 14.9956 28.768 14.9957 28.768 14.9958C28.768 14.9959 28.768 14.996 28.768 14.9961C28.768 14.9962 28.768 14.9964 28.768 14.9965C28.768 14.9966 28.768 14.9967 28.768 14.9968C28.768 14.9969 28.768 14.997 28.768 14.9971C28.768 14.9972 28.768 14.9973 28.768 14.9974C28.768 14.9975 28.768 14.9976 28.768 14.9977C28.768 14.9978 28.768 14.9979 28.768 14.998C28.768 14.9981 28.768 14.9982 28.768 14.9983C28.768 14.9984 28.768 14.9985 28.768 14.9986C28.768 14.9987 28.768 14.9988 28.768 14.9989C28.768 14.999 28.768 14.999 28.768 14.9991C28.768 14.9992 28.768 14.9993 28.768 14.9994C28.768 14.9995 28.768 14.9996 28.768 14.9997C28.768 14.9998 28.768 14.9999 28.768 15H29.568C29.568 14.9999 29.568 14.9998 29.568 14.9997C29.568 14.9996 29.568 14.9995 29.568 14.9994C29.568 14.9993 29.568 14.9992 29.568 14.9991C29.568 14.999 29.568 14.999 29.568 14.9989C29.568 14.9988 29.568 14.9987 29.568 14.9986C29.568 14.9985 29.568 14.9984 29.568 14.9983C29.568 14.9982 29.568 14.9981 29.568 14.998C29.568 14.9979 29.568 14.9978 29.568 14.9977C29.568 14.9976 29.568 14.9975 29.568 14.9974C29.568 14.9973 29.568 14.9972 29.568 14.9971C29.568 14.997 29.568 14.9969 29.568 14.9968C29.568 14.9967 29.568 14.9966 29.568 14.9965C29.568 14.9964 29.568 14.9962 29.568 14.9961C29.568 14.996 29.568 14.9959 29.568 14.9958C29.568 14.9957 29.568 14.9956 29.568 14.9955C29.568 14.9954 29.568 14.9953 29.568 14.9952C29.568 14.9951 29.568 14.995 29.568 14.9949C29.568 14.9948 29.568 14.9947 29.568 14.9946C29.568 14.9944 29.568 14.9943 29.568 14.9942C29.568 14.9941 29.568 14.994 29.568 14.9939C29.568 14.9938 29.568 14.9937 29.568 14.9936C29.568 14.9935 29.568 14.9933 29.568 14.9932C29.568 14.9931 29.568 14.993 29.568 14.9929C29.568 14.9928 29.568 14.9927 29.568 14.9926C29.568 14.9925 29.568 14.9923 29.568 14.9922C29.568 14.9921 29.568 14.992 29.568 14.9919C29.568 14.9918 29.568 14.9917 29.568 14.9915C29.568 14.9914 29.568 14.9913 29.568 14.9912C29.568 14.9911 29.568 14.991 29.568 14.9908C29.568 14.9907 29.568 14.9906 29.568 14.9905C29.568 14.9904 29.568 14.9903 29.568 14.9901C29.568 14.99 29.568 14.9899 29.568 14.9898C29.568 14.9897 29.568 14.9895 29.568 14.9894C29.568 14.9893 29.568 14.9892 29.568 14.9891C29.568 14.9889 29.568 14.9888 29.568 14.9887C29.568 14.9886 29.568 14.9885 29.568 14.9883C29.568 14.9882 29.568 14.9881 29.568 14.988C29.568 14.9878 29.568 14.9877 29.568 14.9876C29.568 14.9875 29.568 14.9873 29.568 14.9872C29.568 14.9871 29.568 14.987 29.568 14.9868C29.568 14.9867 29.568 14.9866 29.568 14.9865C29.568 14.9863 29.568 14.9862 29.568 14.9861C29.568 14.986 29.568 14.9858 29.568 14.9857C29.568 14.9856 29.568 14.9854 29.568 14.9853C29.568 14.9852 29.568 14.9851 29.568 14.9849C29.568 14.9848 29.568 14.9847 29.568 14.9845C29.568 14.9844 29.568 14.9843 29.568 14.9842C29.568 14.984 29.568 14.9839 29.568 14.9838C29.568 14.9836 29.568 14.9835 29.568 14.9834C29.568 14.9832 29.568 14.9831 29.568 14.983C29.568 14.9828 29.568 14.9827 29.568 14.9826C29.568 14.9824 29.568 14.9823 29.568 14.9822C29.568 14.982 29.568 14.9819 29.568 14.9818C29.568 14.9816 29.568 14.9815 29.568 14.9813C29.568 14.9812 29.568 14.9811 29.568 14.9809C29.568 14.9808 29.568 14.9807 29.568 14.9805C29.568 14.9804 29.568 14.9802 29.568 14.9801C29.568 14.98 29.568 14.9798 29.568 14.9797C29.568 14.9795 29.568 14.9794 29.568 14.9793C29.568 14.9791 29.568 14.979 29.568 14.9788C29.568 14.9787 29.568 14.9786 29.568 14.9784C29.568 14.9783 29.568 14.9781 29.568 14.978C29.568 14.9778 29.568 14.9777 29.568 14.9776C29.568 14.9774 29.568 14.9773 29.568 14.9771C29.568 14.977 29.568 14.9768 29.568 14.9767C29.568 14.9765 29.568 14.9764 29.568 14.9763C29.568 14.9761 29.568 14.976 29.568 14.9758C29.568 14.9757 29.568 14.9755 29.568 14.9754C29.568 14.9752 29.568 14.9751 29.568 14.9749C29.568 14.9748 29.568 14.9746 29.568 14.9745C29.568 14.9743 29.568 14.9742 29.568 14.974C29.568 14.9739 29.568 14.9737 29.568 14.9736C29.568 14.9734 29.568 14.9733 29.568 14.9731C29.568 14.973 29.568 14.9728 29.568 14.9727C29.568 14.9725 29.568 14.9724 29.568 14.9722C29.568 14.9721 29.568 14.9719 29.568 14.9718C29.568 14.9716 29.568 14.9714 29.568 14.9713C29.568 14.9711 29.568 14.971 29.568 14.9708C29.568 14.9707 29.568 14.9705 29.568 14.9704C29.568 14.9702 29.568 14.97 29.568 14.9699C29.568 14.9697 29.568 14.9696 29.568 14.9694C29.568 14.9693 29.568 14.9691 29.568 14.9689C29.568 14.9688 29.568 14.9686 29.568 14.9685C29.568 14.9683 29.568 14.9681 29.568 14.968C29.568 14.9678 29.568 14.9677 29.568 14.9675C29.568 14.9673 29.568 14.9672 29.568 14.967C29.568 14.9668 29.568 14.9667 29.568 14.9665C29.568 14.9664 29.568 14.9662 29.568 14.966C29.568 14.9659 29.568 14.9657 29.568 14.9655C29.568 14.9654 29.568 14.9652 29.568 14.965C29.568 14.9649 29.568 14.9647 29.568 14.9646C29.568 14.9644 29.568 14.9642 29.568 14.9641C29.568 14.9639 29.568 14.9637 29.568 14.9635C29.568 14.9634 29.568 14.9632 29.568 14.963C29.568 14.9629 29.568 14.9627 29.568 14.9625C29.568 14.9624 29.568 14.9622 29.568 14.962C29.568 14.9619 29.568 14.9617 29.568 14.9615C29.568 14.9613 29.568 14.9612 29.568 14.961C29.568 14.9608 29.568 14.9607 29.568 14.9605C29.568 14.9603 29.568 14.9601 29.568 14.96C29.568 14.9598 29.568 14.9596 29.568 14.9595C29.568 14.9593 29.568 14.9591 29.568 14.9589C29.568 14.9588 29.568 14.9586 29.568 14.9584C29.568 14.9582 29.568 14.9581 29.568 14.9579C29.568 14.9577 29.568 14.9575 29.568 14.9573C29.568 14.9572 29.568 14.957 29.568 14.9568C29.568 14.9566 29.568 14.9565 29.568 14.9563C29.568 14.9561 29.568 14.9559 29.568 14.9557C29.568 14.9556 29.568 14.9554 29.568 14.9552C29.568 14.955 29.568 14.9548 29.568 14.9547C29.568 14.9545 29.568 14.9543 29.568 14.9541C29.568 14.9539 29.568 14.9538 29.568 14.9536C29.568 14.9534 29.568 14.9532 29.568 14.953C29.568 14.9528 29.568 14.9527 29.568 14.9525C29.568 14.9523 29.568 14.9521 29.568 14.9519C29.568 14.9517 29.568 14.9515 29.568 14.9514C29.568 14.9512 29.568 14.951 29.568 14.9508C29.568 14.9506 29.568 14.9504 29.568 14.9502C29.568 14.9501 29.568 14.9499 29.568 14.9497C29.568 14.9495 29.568 14.9493 29.568 14.9491C29.568 14.9489 29.568 14.9487 29.568 14.9485C29.568 14.9484 29.568 14.9482 29.568 14.948C29.568 14.9478 29.568 14.9476 29.568 14.9474C29.568 14.9472 29.568 14.947 29.568 14.9468C29.568 14.9466 29.568 14.9464 29.568 14.9462C29.568 14.9461 29.568 14.9459 29.568 14.9457C29.568 14.9455 29.568 14.9453 29.568 14.9451C29.568 14.9449 29.568 14.9447 29.568 14.9445C29.568 14.9443 29.568 14.9441 29.568 14.9439C29.568 14.9437 29.568 14.9435 29.568 14.9433C29.568 14.9431 29.568 14.9429 29.568 14.9427C29.568 14.9425 29.568 14.9423 29.568 14.9421C29.568 14.9419 29.568 14.9417 29.568 14.9415C29.568 14.9413 29.568 14.9411 29.568 14.9409C29.568 14.9407 29.568 14.9405 29.568 14.9403C29.568 14.9401 29.568 14.9399 29.568 14.9397C29.568 14.9395 29.568 14.9393 29.568 14.9391C29.568 14.9389 29.568 14.9387 29.568 14.9385C29.568 14.9383 29.568 14.9381 29.568 14.9379C29.568 14.9377 29.568 14.9375 29.568 14.9373C29.568 14.9371 29.568 14.9369 29.568 14.9367C29.568 14.9365 29.568 14.9363 29.568 14.9361C29.568 14.9359 29.568 14.9357 29.568 14.9354C29.568 14.9352 29.568 14.935 29.568 14.9348C29.568 14.9346 29.568 14.9344 29.568 14.9342C29.568 14.934 29.568 14.9338 29.568 14.9336C29.568 14.9334 29.568 14.9331 29.568 14.9329C29.568 14.9327 29.568 14.9325 29.568 14.9323C29.568 14.9321 29.568 14.9319 29.568 14.9317C29.568 14.9315 29.568 14.9312 29.568 14.931C29.568 14.9308 29.568 14.9306 29.568 14.9304C29.568 14.9302 29.568 14.93 29.568 14.9298C29.568 14.9295 29.568 14.9293 29.568 14.9291C29.568 14.9289 29.568 14.9287 29.568 14.9285C29.568 14.9282 29.568 14.928 29.568 14.9278C29.568 14.9276 29.568 14.9274 29.568 14.9272C29.568 14.9269 29.568 14.9267 29.568 14.9265C29.568 14.9263 29.568 14.9261 29.568 14.9259C29.568 14.9256 29.568 14.9254 29.568 14.9252C29.568 14.925 29.568 14.9248 29.568 14.9245C29.568 14.9243 29.568 14.9241 29.568 14.9239C29.568 14.9236 29.568 14.9234 29.568 14.9232C29.568 14.923 29.568 14.9228 29.568 14.9225C29.568 14.9223 29.568 14.9221 29.568 14.9219C29.568 14.9216 29.568 14.9214 29.568 14.9212C29.568 14.921 29.568 14.9207 29.568 14.9205C29.568 14.9203 29.568 14.9201 29.568 14.9198C29.568 14.9196 29.568 14.9194 29.568 14.9192C29.568 14.9189 29.568 14.9187 29.568 14.9185C29.568 14.9182 29.568 14.918 29.568 14.9178C29.568 14.9176 29.568 14.9173 29.568 14.9171C29.568 14.9169 29.568 14.9166 29.568 14.9164C29.568 14.9162 29.568 14.916 29.568 14.9157C29.568 14.9155 29.568 14.9153 29.568 14.915C29.568 14.9148 29.568 14.9146 29.568 14.9143C29.568 14.9141 29.568 14.9139 29.568 14.9136C29.568 14.9134 29.568 14.9132 29.568 14.9129C29.568 14.9127 29.568 14.9125 29.568 14.9122C29.568 14.912 29.568 14.9118 29.568 14.9115C29.568 14.9113 29.568 14.911 29.568 14.9108C29.568 14.9106 29.568 14.9103 29.568 14.9101C29.568 14.9099 29.568 14.9096 29.568 14.9094C29.568 14.9092 29.568 14.9089 29.568 14.9087C29.568 14.9084 29.568 14.9082 29.568 14.908C29.568 14.9077 29.568 14.9075 29.568 14.9072C29.568 14.907 29.568 14.9068 29.568 14.9065C29.568 14.9063 29.568 14.906 29.568 14.9058C29.568 14.9055 29.568 14.9053 29.568 14.9051C29.568 14.9048 29.568 14.9046 29.568 14.9043C29.568 14.9041 29.568 14.9038 29.568 14.9036C29.568 14.9034 29.568 14.9031 29.568 14.9029C29.568 14.9026 29.568 14.9024 29.568 14.9021C29.568 14.9019 29.568 14.9016 29.568 14.9014C29.568 14.9011 29.568 14.9009 29.568 14.9006C29.568 14.9004 29.568 14.9001 29.568 14.8999C29.568 14.8997 29.568 14.8994 29.568 14.8992C29.568 14.8989 29.568 14.8987 29.568 14.8984C29.568 14.8982 29.568 14.8979 29.568 14.8977C29.568 14.8974 29.568 14.8971 29.568 14.8969C29.568 14.8966 29.568 14.8964 29.568 14.8961C29.568 14.8959 29.568 14.8956 29.568 14.8954C29.568 14.8951 29.568 14.8949 29.568 14.8946C29.568 14.8944 29.568 14.8941 29.568 14.8939C29.568 14.8936 29.568 14.8933 29.568 14.8931C29.568 14.8928 29.568 14.8926 29.568 14.8923C29.568 14.8921 29.568 14.8918 29.568 14.8916C29.568 14.8913 29.568 14.891 29.568 14.8908C29.568 14.8905 29.568 14.8903 29.568 14.89C29.568 14.8897 29.568 14.8895 29.568 14.8892C29.568 14.889 29.568 14.8887 29.568 14.8884C29.568 14.8882 29.568 14.8879 29.568 14.8877C29.568 14.8874 29.568 14.8871 29.568 14.8869C29.568 14.8866 29.568 14.8864 29.568 14.8861C29.568 14.8858 29.568 14.8856 29.568 14.8853C29.568 14.885 29.568 14.8848 29.568 14.8845C29.568 14.8843 29.568 14.884 29.568 14.8837C29.568 14.8835 29.568 14.8832 29.568 14.8829C29.568 14.8827 29.568 14.8824 29.568 14.8821C29.568 14.8819 29.568 14.8816 29.568 14.8813C29.568 14.8811 29.568 14.8808 29.568 14.8805C29.568 14.8803 29.568 14.88 29.568 14.8797C29.568 14.8794 29.568 14.8792 29.568 14.8789C29.568 14.8786 29.568 14.8784 29.568 14.8781C29.568 14.8778 29.568 14.8776 29.568 14.8773C29.568 14.877 29.568 14.8767 29.568 14.8765C29.568 14.8762 29.568 14.8759 29.568 14.8756C29.568 14.8754 29.568 14.8751 29.568 14.8748C29.568 14.8746 29.568 14.8743 29.568 14.874C29.568 14.8737 29.568 14.8735 29.568 14.8732C29.568 14.8729 29.568 14.8726 29.568 14.8724C29.568 14.8721 29.568 14.8718 29.568 14.8715C29.568 14.8712 29.568 14.871 29.568 14.8707C29.568 14.8704 29.568 14.8701 29.568 14.8699C29.568 14.8696 29.568 14.8693 29.568 14.869C29.568 14.8687 29.568 14.8685 29.568 14.8682C29.568 14.8679 29.568 14.8676 29.568 14.8673C29.568 14.8671 29.568 14.8668 29.568 14.8665C29.568 14.8662 29.568 14.8659 29.568 14.8656C29.568 14.8654 29.568 14.8651 29.568 14.8648C29.568 14.8645 29.568 14.8642 29.568 14.8639C29.568 14.8637 29.568 14.8634 29.568 14.8631C29.568 14.8628 29.568 14.8625 29.568 14.8622C29.568 14.8619 29.568 14.8617 29.568 14.8614C29.568 14.8611 29.568 14.8608 29.568 14.8605C29.568 14.8602 29.568 14.8599 29.568 14.8597C29.568 14.8594 29.568 14.8591 29.568 14.8588C29.568 14.8585 29.568 14.8582 29.568 14.8579C29.568 14.8576 29.568 14.8573 29.568 14.857C29.568 14.8568 29.568 14.8565 29.568 14.8562C29.568 14.8559 29.568 14.8556 29.568 14.8553C29.568 14.855 29.568 14.8547 29.568 14.8544C29.568 14.8541 29.568 14.8538 29.568 14.8535C29.568 14.8532 29.568 14.853 29.568 14.8527C29.568 14.8524 29.568 14.8521 29.568 14.8518C29.568 14.8515 29.568 14.8512 29.568 14.8509C29.568 14.8506 29.568 14.8503 29.568 14.85C29.568 14.8497 29.568 14.8494 29.568 14.8491C29.568 14.8488 29.568 14.8485 29.568 14.8482C29.568 14.8479 29.568 14.8476 29.568 14.8473C29.568 14.847 29.568 14.8467 29.568 14.8464C29.568 14.8461 29.568 14.8458 29.568 14.8455C29.568 14.8452 29.568 14.8449 29.568 14.8446C29.568 14.8443 29.568 14.844 29.568 14.8437C29.568 14.8434 29.568 14.8431 29.568 14.8428C29.568 14.8425 29.568 14.8422 29.568 14.8419C29.568 14.8416 29.568 14.8413 29.568 14.841C29.568 14.8407 29.568 14.8404 29.568 14.8401C29.568 14.8398 29.568 14.8394 29.568 14.8391C29.568 14.8388 29.568 14.8385 29.568 14.8382C29.568 14.8379 29.568 14.8376 29.568 14.8373C29.568 14.837 29.568 14.8367 29.568 14.8364C29.568 14.8361 29.568 14.8358 29.568 14.8354C29.568 14.8351 29.568 14.8348 29.568 14.8345C29.568 14.8342 29.568 14.8339 29.568 14.8336C29.568 14.8333 29.568 14.833 29.568 14.8326C29.568 14.8323 29.568 14.832 29.568 14.8317C29.568 14.8314 29.568 14.8311 29.568 14.8308C29.568 14.8305 29.568 14.8301 29.568 14.8298C29.568 14.8295 29.568 14.8292 29.568 14.8289C29.568 14.8286 29.568 14.8283 29.568 14.8279C29.568 14.8276 29.568 14.8273 29.568 14.827C29.568 14.8267 29.568 14.8264 29.568 14.826C29.568 14.8257 29.568 14.8254 29.568 14.8251C29.568 14.8248 29.568 14.8244 29.568 14.8241C29.568 14.8238 29.568 14.8235 29.568 14.8232C29.568 14.8229 29.568 14.8225 29.568 14.8222C29.568 14.8219 29.568 14.8216 29.568 14.8212C29.568 14.8209 29.568 14.8206 29.568 14.8203C29.568 14.82 29.568 14.8196 29.568 14.8193C29.568 14.819 29.568 14.8187 29.568 14.8183C29.568 14.818 29.568 14.8177 29.568 14.8174C29.568 14.817 29.568 14.8167 29.568 14.8164C29.568 14.8161 29.568 14.8157 29.568 14.8154C29.568 14.8151 29.568 14.8148 29.568 14.8144C29.568 14.8141 29.568 14.8138 29.568 14.8135C29.568 14.8131 29.568 14.8128 29.568 14.8125C29.568 14.8121 29.568 14.8118 29.568 14.8115C29.568 14.8112 29.568 14.8108 29.568 14.8105C29.568 14.8102 29.568 14.8098 29.568 14.8095C29.568 14.8092 29.568 14.8088 29.568 14.8085C29.568 14.8082 29.568 14.8078 29.568 14.8075C29.568 14.8072 29.568 14.8068 29.568 14.8065C29.568 14.8062 29.568 14.8058 29.568 14.8055C29.568 14.8052 29.568 14.8048 29.568 14.8045C29.568 14.8042 29.568 14.8038 29.568 14.8035C29.568 14.8032 29.568 14.8028 29.568 14.8025C29.568 14.8022 29.568 14.8018 29.568 14.8015C29.568 14.8011 29.568 14.8008 29.568 14.8005C29.568 14.8001 29.568 14.7998 29.568 14.7995C29.568 14.7991 29.568 14.7988 29.568 14.7984C29.568 14.7981 29.568 14.7978 29.568 14.7974C29.568 14.7971 29.568 14.7967 29.568 14.7964C29.568 14.7961 29.568 14.7957 29.568 14.7954C29.568 14.795 29.568 14.7947 29.568 14.7943C29.568 14.794 29.568 14.7937 29.568 14.7933C29.568 14.793 29.568 14.7926 29.568 14.7923C29.568 14.7919 29.568 14.7916 29.568 14.7912C29.568 14.7909 29.568 14.7906 29.568 14.7902C29.568 14.7899 29.568 14.7895 29.568 14.7892C29.568 14.7888 29.568 14.7885 29.568 14.7881C29.568 14.7878 29.568 14.7874 29.568 14.7871C29.568 14.7867 29.568 14.7864 29.568 14.786C29.568 14.7857 29.568 14.7853 29.568 14.785C29.568 14.7846 29.568 14.7843 29.568 14.7839C29.568 14.7836 29.568 14.7832 29.568 14.7829C29.568 14.7825 29.568 14.7822 29.568 14.7818C29.568 14.7815 29.568 14.7811 29.568 14.7808C29.568 14.7804 29.568 14.7801 29.568 14.7797C29.568 14.7794 29.568 14.779 29.568 14.7786C29.568 14.7783 29.568 14.7779 29.568 14.7776C29.568 14.7772 29.568 14.7769 29.568 14.7765C29.568 14.7762 29.568 14.7758 29.568 14.7754C29.568 14.7751 29.568 14.7747 29.568 14.7744C29.568 14.774 29.568 14.7736 29.568 14.7733C29.568 14.7729 29.568 14.7726 29.568 14.7722C29.568 14.7719 29.568 14.7715 29.568 14.7711C29.568 14.7708 29.568 14.7704 29.568 14.77C29.568 14.7697 29.568 14.7693 29.568 14.769C29.568 14.7686 29.568 14.7682 29.568 14.7679C29.568 14.7675 29.568 14.7672 29.568 14.7668C29.568 14.7664 29.568 14.7661 29.568 14.7657C29.568 14.7653 29.568 14.765 29.568 14.7646C29.568 14.7642 29.568 14.7639 29.568 14.7635C29.568 14.7631 29.568 14.7628 29.568 14.7624C29.568 14.762 29.568 14.7617 29.568 14.7613C29.568 14.7609 29.568 14.7606 29.568 14.7602C29.568 14.7598 29.568 14.7595 29.568 14.7591C29.568 14.7587 29.568 14.7584 29.568 14.758C29.568 14.7576 29.568 14.7572 29.568 14.7569C29.568 14.7565 29.568 14.7561 29.568 14.7558C29.568 14.7554 29.568 14.755 29.568 14.7546C29.568 14.7543 29.568 14.7539 29.568 14.7535C29.568 14.7532 29.568 14.7528 29.568 14.7524C29.568 14.752 29.568 14.7517 29.568 14.7513C29.568 14.7509 29.568 14.7505 29.568 14.7502C29.568 14.7498 29.568 14.7494 29.568 14.749C29.568 14.7487 29.568 14.7483 29.568 14.7479C29.568 14.7475 29.568 14.7472 29.568 14.7468C29.568 14.7464 29.568 14.746 29.568 14.7456C29.568 14.7453 29.568 14.7449 29.568 14.7445C29.568 14.7441 29.568 14.7437 29.568 14.7434C29.568 14.743 29.568 14.7426 29.568 14.7422C29.568 14.7418 29.568 14.7415 29.568 14.7411C29.568 14.7407 29.568 14.7403 29.568 14.7399C29.568 14.7395 29.568 14.7392 29.568 14.7388C29.568 14.7384 29.568 14.738 29.568 14.7376C29.568 14.7372 29.568 14.7369 29.568 14.7365C29.568 14.7361 29.568 14.7357 29.568 14.7353C29.568 14.7349 29.568 14.7345 29.568 14.7342C29.568 14.7338 29.568 14.7334 29.568 14.733C29.568 14.7326 29.568 14.7322 29.568 14.7318C29.568 14.7314 29.568 14.7311 29.568 14.7307C29.568 14.7303 29.568 14.7299 29.568 14.7295C29.568 14.7291 29.568 14.7287 29.568 14.7283C29.568 14.7279 29.568 14.7276 29.568 14.7272C29.568 14.7268 29.568 14.7264 29.568 14.726C29.568 14.7256 29.568 14.7252 29.568 14.7248C29.568 14.7244 29.568 14.724 29.568 14.7236C29.568 14.7232 29.568 14.7228 29.568 14.7224C29.568 14.7221 29.568 14.7217 29.568 14.7213C29.568 14.7209 29.568 14.7205 29.568 14.7201C29.568 14.7197 29.568 14.7193 29.568 14.7189C29.568 14.7185 29.568 14.7181 29.568 14.7177C29.568 14.7173 29.568 14.7169 29.568 14.7165C29.568 14.7161 29.568 14.7157 29.568 14.7153C29.568 14.7149 29.568 14.7145 29.568 14.7141C29.568 14.7137 29.568 14.7133 29.568 14.7129C29.568 14.7125 29.568 14.7121 29.568 14.7117C29.568 14.7113 29.568 14.7109 29.568 14.7105C29.568 14.7101 29.568 14.7097 29.568 14.7093C29.568 14.7089 29.568 14.7085 29.568 14.7081C29.568 14.7077 29.568 14.7073 29.568 14.7069C29.568 14.7065 29.568 14.7061 29.568 14.7056C29.568 14.7052 29.568 14.7048 29.568 14.7044C29.568 14.704 29.568 14.7036 29.568 14.7032C29.568 14.7028 29.568 14.7024 29.568 14.702C29.568 14.7016 29.568 14.7012 29.568 14.7008C29.568 14.7004 29.568 14.6999 29.568 14.6995C29.568 14.6991 29.568 14.6987 29.568 14.6983C29.568 14.6979 29.568 14.6975 29.568 14.6971C29.568 14.6967 29.568 14.6962 29.568 14.6958C29.568 14.6954 29.568 14.695 29.568 14.6946C29.568 14.6942 29.568 14.6938 29.568 14.6934C29.568 14.6929 29.568 14.6925 29.568 14.6921C29.568 14.6917 29.568 14.6913 29.568 14.6909C29.568 14.6905 29.568 14.69 29.568 14.6896C29.568 14.6892 29.568 14.6888 29.568 14.6884C29.568 14.688 29.568 14.6875 29.568 14.6871C29.568 14.6867 29.568 14.6863 29.568 14.6859C29.568 14.6855 29.568 14.685 29.568 14.6846C29.568 14.6842 29.568 14.6838 29.568 14.6834C29.568 14.6829 29.568 14.6825 29.568 14.6821C29.568 14.6817 29.568 14.6813 29.568 14.6808C29.568 14.6804 29.568 14.68 29.568 14.6796C29.568 14.6791 29.568 14.6787 29.568 14.6783C29.568 14.6779 29.568 14.6775 29.568 14.677C29.568 14.6766 29.568 14.6762 29.568 14.6758C29.568 14.6753 29.568 14.6749 29.568 14.6745C29.568 14.6741 29.568 14.6736 29.568 14.6732C29.568 14.6728 29.568 14.6724 29.568 14.6719C29.568 14.6715 29.568 14.6711 29.568 14.6706C29.568 14.6702 29.568 14.6698 29.568 14.6694C29.568 14.6689 29.568 14.6685 29.568 14.6681C29.568 14.6676 29.568 14.6672 29.568 14.6668C29.568 14.6664 29.568 14.6659 29.568 14.6655C29.568 14.6651 29.568 14.6646 29.568 14.6642C29.568 14.6638 29.568 14.6633 29.568 14.6629C29.568 14.6625 29.568 14.662 29.568 14.6616C29.568 14.6612 29.568 14.6607 29.568 14.6603C29.568 14.6599 29.568 14.6594 29.568 14.659C29.568 14.6586 29.568 14.6581 29.568 14.6577C29.568 14.6573 29.568 14.6568 29.568 14.6564C29.568 14.6559 29.568 14.6555 29.568 14.6551C29.568 14.6546 29.568 14.6542 29.568 14.6538C29.568 14.6533 29.568 14.6529 29.568 14.6524C29.568 14.652 29.568 14.6516 29.568 14.6511C29.568 14.6507 29.568 14.6502 29.568 14.6498C29.568 14.6494 29.568 14.6489 29.568 14.6485C29.568 14.648 29.568 14.6476 29.568 14.6472C29.568 14.6467 29.568 14.6463 29.568 14.6458C29.568 14.6454 29.568 14.6449 29.568 14.6445C29.568 14.6441 29.568 14.6436 29.568 14.6432C29.568 14.6427 29.568 14.6423 29.568 14.6418C29.568 14.6414 29.568 14.6409 29.568 14.6405C29.568 14.64 29.568 14.6396 29.568 14.6392C29.568 14.6387 29.568 14.6383 29.568 14.6378C29.568 14.6374 29.568 14.6369 29.568 14.6365C29.568 14.636 29.568 14.6356 29.568 14.6351C29.568 14.6347 29.568 14.6342 29.568 14.6338C29.568 14.6333 29.568 14.6329 29.568 14.6324C29.568 14.632 29.568 14.6315 29.568 14.6311C29.568 14.6306 29.568 14.6302 29.568 14.6297C29.568 14.6293 29.568 14.6288 29.568 14.6284C29.568 14.6279 29.568 14.6274 29.568 14.627C29.568 14.6265 29.568 14.6261 29.568 14.6256C29.568 14.6252 29.568 14.6247 29.568 14.6243C29.568 14.6238 29.568 14.6234 29.568 14.6229C29.568 14.6224 29.568 14.622 29.568 14.6215C29.568 14.6211 29.568 14.6206 29.568 14.6202C29.568 14.6197 29.568 14.6192 29.568 14.6188C29.568 14.6183 29.568 14.6179 29.568 14.6174C29.568 14.6169 29.568 14.6165 29.568 14.616C29.568 14.6156 29.568 14.6151 29.568 14.6146C29.568 14.6142 29.568 14.6137 29.568 14.6133C29.568 14.6128 29.568 14.6123 29.568 14.6119C29.568 14.6114 29.568 14.6109 29.568 14.6105C29.568 14.61 29.568 14.6096 29.568 14.6091C29.568 14.6086 29.568 14.6082 29.568 14.6077C29.568 14.6072 29.568 14.6068 29.568 14.6063C29.568 14.6058 29.568 14.6054 29.568 14.6049C29.568 14.6044 29.568 14.604 29.568 14.6035C29.568 14.603 29.568 14.6026 29.568 14.6021C29.568 14.6016 29.568 14.6012 29.568 14.6007C29.568 14.6002 29.568 14.5998 29.568 14.5993C29.568 14.5988 29.568 14.5983 29.568 14.5979C29.568 14.5974 29.568 14.5969 29.568 14.5965C29.568 14.596 29.568 14.5955 29.568 14.595C29.568 14.5946 29.568 14.5941 29.568 14.5936C29.568 14.5931 29.568 14.5927 29.568 14.5922C29.568 14.5917 29.568 14.5913 29.568 14.5908C29.568 14.5903 29.568 14.5898 29.568 14.5894C29.568 14.5889 29.568 14.5884 29.568 14.5879C29.568 14.5875 29.568 14.587 29.568 14.5865C29.568 14.586 29.568 14.5855 29.568 14.5851C29.568 14.5846 29.568 14.5841 29.568 14.5836C29.568 14.5832 29.568 14.5827 29.568 14.5822C29.568 14.5817 29.568 14.5812 29.568 14.5808C29.568 14.5803 29.568 14.5798 29.568 14.5793C29.568 14.5788 29.568 14.5784 29.568 14.5779C29.568 14.5774 29.568 14.5769 29.568 14.5764C29.568 14.5759 29.568 14.5755 29.568 14.575C29.568 14.5745 29.568 14.574 29.568 14.5735C29.568 14.573 29.568 14.5726 29.568 14.5721C29.568 14.5716 29.568 14.5711 29.568 14.5706C29.568 14.5701 29.568 14.5696 29.568 14.5692C29.568 14.5687 29.568 14.5682 29.568 14.5677C29.568 14.5672 29.568 14.5667 29.568 14.5662C29.568 14.5657 29.568 14.5653 29.568 14.5648C29.568 14.5643 29.568 14.5638 29.568 14.5633C29.568 14.5628 29.568 14.5623 29.568 14.5618C29.568 14.5613 29.568 14.5608 29.568 14.5604C29.568 14.5599 29.568 14.5594 29.568 14.5589C29.568 14.5584 29.568 14.5579 29.568 14.5574C29.568 14.5569 29.568 14.5564 29.568 14.5559C29.568 14.5554 29.568 14.5549 29.568 14.5544C29.568 14.5539 29.568 14.5535 29.568 14.553C29.568 14.5525 29.568 14.552 29.568 14.5515C29.568 14.551 29.568 14.5505 29.568 14.55C29.568 14.5495 29.568 14.549 29.568 14.5485C29.568 14.548 29.568 14.5475 29.568 14.547C29.568 14.5465 29.568 14.546 29.568 14.5455C29.568 14.545 29.568 14.5445 29.568 14.544H28.768ZM28.8264 14.792L21.3144 27.128L21.9976 27.544L29.5096 15.208L28.8264 14.792ZM21.656 27.736H26.408V26.936H21.656V27.736Z" fill="#303030"/>
<path d="M10.616 12.64H12.2C13.112 12.64 13.808 12.4 14.288 11.92C14.784 11.424 15.032 10.712 15.032 9.784C15.032 8.84 14.784 8.12 14.288 7.624C13.808 7.128 13.112 6.88 12.2 6.88H10.616V12.64ZM20.072 19.672C20.072 20.152 20.032 20.552 19.952 20.872H15.992L13.064 14.824C12.904 14.488 12.728 14.248 12.536 14.104C12.344 13.96 12.064 13.888 11.696 13.888H10.616V19.312C11.24 19.568 11.912 19.72 12.632 19.768C12.648 19.88 12.656 20.024 12.656 20.2C12.656 20.376 12.624 20.6 12.56 20.872H5.96C5.96 20.776 5.96 20.632 5.96 20.44C5.96 20.232 6 20.008 6.08 19.768C6.608 19.688 6.992 19.56 7.232 19.384C7.472 19.208 7.592 18.896 7.592 18.448V7.048C7.08 6.84 6.512 6.736 5.888 6.736C5.888 6.256 5.928 5.888 6.008 5.632H12.776C14.504 5.632 15.848 6 16.808 6.736C17.784 7.472 18.272 8.48 18.272 9.76C18.272 10.688 18.008 11.48 17.48 12.136C16.952 12.792 16.192 13.272 15.2 13.576C15.648 13.848 16.072 14.352 16.472 15.088L18.08 18.232C18.368 18.792 18.648 19.176 18.92 19.384C19.208 19.576 19.592 19.672 20.072 19.672Z" fill="#FFA360"/>
</svg>
